<svg id="Layer_1" data-name="Layer 1" xmlns="http://www.w3.org/2000/svg" viewBox="0 0 376.84 295.13"><defs><style>.cls-1{fill:#36a9e1;}.cls-2{fill:#29235c;}.cls-3{fill:#1d71b8;}</style></defs><g id="g297"><path id="path295" class="cls-1" d="M374.92,332.6C344.93,204.51,178,250.05,178,371.83h0c-89.22,0-98.47,138.08,9.25,138.08h39.24V332.23" transform="translate(-108.76 -255.87)"/></g><rect id="rect299" class="cls-2" x="136.23" y="95.23" width="111.05" height="40.72"/><path id="path303" class="cls-1" d="M411.57,551H307.92a10.91,10.91,0,0,1-11.11-11.11h0a10.9,10.9,0,0,1,11.11-11.1H411.57a10.9,10.9,0,0,1,11.1,11.1h0A11.13,11.13,0,0,1,411.57,551Z" transform="translate(-108.76 -255.87)"/><path id="path305" class="cls-1" d="M267.57,551H209.08A10.91,10.91,0,0,1,198,539.89h0a10.91,10.91,0,0,1,11.11-11.1H267.2a10.9,10.9,0,0,1,11.1,11.1h0C278.67,545.82,273.49,551,267.57,551Z" transform="translate(-108.76 -255.87)"/><path id="path307" class="cls-1" d="M439.33,332.6H406a10.91,10.91,0,0,1-11.1-11.11h0a10.9,10.9,0,0,1,11.1-11.1h33.32a10.91,10.91,0,0,1,11.11,11.1h0A11.15,11.15,0,0,1,439.33,332.6Z" transform="translate(-108.76 -255.87)"/><rect id="rect311" class="cls-3" x="265.79" y="95.23" width="111.05" height="40.72"/><rect id="rect313" class="cls-3" x="136.23" y="154.46" width="111.05" height="40.72"/><rect id="rect315" class="cls-2" x="265.79" y="154.46" width="111.05" height="40.72"/><rect id="rect317" class="cls-2" x="136.23" y="213.69" width="111.05" height="40.72"/><rect id="rect319" class="cls-3" x="265.79" y="213.69" width="111.05" height="40.72"/></svg>