<svg xmlns="http://www.w3.org/2000/svg" xmlns:xlink="http://www.w3.org/1999/xlink" viewBox="0 0 387.4 46.2"><defs><style>.cls-1{fill:#02a4aa;}.cls-2{fill:#ff961e;}.cls-3{fill:url(#linear-gradient);}.cls-4{fill:url(#linear-gradient-2);}.cls-5{fill:url(#linear-gradient-3);}.cls-6{fill:url(#linear-gradient-4);}.cls-7{fill:url(#linear-gradient-5);}.cls-8{fill:url(#linear-gradient-6);}</style><linearGradient id="linear-gradient" x1="353.47" y1="4.51" x2="351.18" y2="2.38" gradientUnits="userSpaceOnUse"><stop offset="0" stop-color="#00676b"/><stop offset="0.97" stop-color="#02a4aa"/></linearGradient><linearGradient id="linear-gradient-2" x1="-201.91" y1="-1893.89" x2="-196.55" y2="-1893.98" gradientTransform="translate(-1208.12 1121.6) rotate(60.29)" xlink:href="#linear-gradient"/><linearGradient id="linear-gradient-3" x1="340.85" y1="-0.01" x2="338.85" y2="5.07" xlink:href="#linear-gradient"/><linearGradient id="linear-gradient-4" x1="31.78" y1="9.65" x2="24.84" y2="12.65" gradientUnits="userSpaceOnUse"><stop offset="0" stop-color="#a95f00"/><stop offset="0.11" stop-color="#b96a06"/><stop offset="0.34" stop-color="#d87d10"/><stop offset="0.57" stop-color="#ed8b18"/><stop offset="0.8" stop-color="#fb931c"/><stop offset="1" stop-color="#ff961e"/></linearGradient><linearGradient id="linear-gradient-5" x1="11.34" y1="24.83" x2="18.67" y2="33.49" gradientUnits="userSpaceOnUse"><stop offset="0" stop-color="#a95f00"/><stop offset="1" stop-color="#ff961e"/></linearGradient><linearGradient id="linear-gradient-6" x1="22.6" y1="37.36" x2="34.45" y2="37.14" xlink:href="#linear-gradient-5"/></defs><g id="Layer_2" data-name="Layer 2"><g id="Layer_1-2" data-name="Layer 1"><path class="cls-1" d="M97.48,23.35a3.34,3.34,0,0,0-3.36-3.3h-12a3.33,3.33,0,1,0,0,6.66h8.6l-.09.49c-1.3,7.46-7.38,12.28-15.5,12.28-8.84,0-15.76-7.22-15.76-16.44A16.39,16.39,0,0,1,75.75,6.67,16.17,16.17,0,0,1,87,11.17a3.25,3.25,0,0,0,2.35.89A3.42,3.42,0,0,0,91.66,11a3.37,3.37,0,0,0-.12-4.73A23.08,23.08,0,0,0,52.65,23c0,13,9.88,23.09,22.48,23.09,13,0,22.41-9.16,22.41-21.79C97.54,24.13,97.48,23.35,97.48,23.35Z"/><path class="cls-1" d="M144.67,23.35a3.33,3.33,0,0,0-3.36-3.3h-12a3.33,3.33,0,1,0,0,6.66h8.6l-.08.49c-1.3,7.46-7.39,12.28-15.51,12.28-8.83,0-15.76-7.22-15.76-16.44A16.39,16.39,0,0,1,122.94,6.67a16.21,16.21,0,0,1,11.24,4.5,3.31,3.31,0,0,0,4.67-.17,3.39,3.39,0,0,0-.11-4.73A23.08,23.08,0,0,0,99.85,23c0,13,9.87,23.09,22.47,23.09,13,0,22.42-9.16,22.42-21.79C144.74,24.13,144.67,23.35,144.67,23.35Z"/><path class="cls-1" d="M168.83,25.92l.41-.18a13.07,13.07,0,0,0,8.11-11.88c0-7.49-6-13.82-13.14-13.82H150.12A3.68,3.68,0,0,0,147,3.65V42.9a3.24,3.24,0,0,0,6.48,0v-16H162l9.22,17.5a3.11,3.11,0,0,0,2.85,1.76,3.06,3.06,0,0,0,1.54-.38h0a3.22,3.22,0,0,0,1.59-1.91,3.29,3.29,0,0,0-.22-2.48Zm-5.12-5.45H153.52V6.58h10.69c3.55,0,6.67,3.4,6.67,7.28C170.88,17.38,167.53,20.47,163.71,20.47Z"/><path class="cls-1" d="M204.26,1.87a3.43,3.43,0,0,0-3-1.83,3.38,3.38,0,0,0-3,2L180,41.42a3.29,3.29,0,0,0-.11,2.52,3.37,3.37,0,0,0,1.72,1.86,3,3,0,0,0,1.39.33,3.29,3.29,0,0,0,3-1.94l4.68-10.08.39.19a.69.69,0,0,0,.25,0H213l.18.23L218,44.3a3.32,3.32,0,0,0,1.92,1.64,3.27,3.27,0,0,0,2.51-.2h0a3.16,3.16,0,0,0,1.67-1.84,3.34,3.34,0,0,0-.18-2.59Zm-10.6,25.79L201.37,11l8.31,16.63Z"/><path class="cls-1" d="M279,0h-9.71A3.22,3.22,0,0,0,266,3.23V42.39c0,1.83,1.15,3.74,3.22,3.74H279A23.06,23.06,0,1,0,279,0Zm.07,39.47-6.48-.2V6.59H279a16.44,16.44,0,1,1,.07,32.88Z"/><path class="cls-1" d="M307.71,0a3.38,3.38,0,0,0-3.35,3.42V42.72a3.39,3.39,0,1,0,6.77,0V3.46A3.39,3.39,0,0,0,307.71,0Z"/><path class="cls-1" d="M384.11,26.51a3.27,3.27,0,1,0,0-6.53H366V6.59h18.11a3.3,3.3,0,0,0,0-6.59H362.7a3.27,3.27,0,0,0-3.23,3.3V42.89a3.21,3.21,0,0,0,3.23,3.24h21.41a3.27,3.27,0,1,0,0-6.54H366V26.51Z"/><path class="cls-2" d="M328.28,1.24h0l0-.06h0C328.1.9,328,.67,328,.55L327.71,0h-9.8a3.34,3.34,0,0,0,0,6.67H334.3A9.84,9.84,0,0,1,328.28,1.24Z"/><path class="cls-2" d="M349.39,39.53h-25l13.07-15.77-.5-1.09a14.62,14.62,0,0,1-.92-7.55L314.79,40.75a3.28,3.28,0,0,0-.51,3.5,3.4,3.4,0,0,0,3.07,1.88h32a3.3,3.3,0,0,0,3.34-3.33A3.35,3.35,0,0,0,349.39,39.53Z"/><path class="cls-3" d="M357.17,0H342.06A17.26,17.26,0,0,1,348,2.48a4.19,4.19,0,0,1,1.19,1.36,4.28,4.28,0,0,1,.3,3.11,3.14,3.14,0,0,0,.32,2Z"/><path class="cls-4" d="M343.65,16.32c2.2-2.62,1.91-4.53.84-6.71-.05-.1-.1-.2-.16-.3-1.2-2.25-3.28-3.88-8.43-4.9a8.4,8.4,0,0,1-6-4.07c1.67,3.39,3.49,4.13,6.17,5,2.9,1,4.89,2.09,2.7,6.94a13.07,13.07,0,0,0,0,9.9Z"/><path class="cls-5" d="M335.9,4.41c5.15,1,7.24,2.65,8.4,4.92a7,7,0,0,1-.42,6.72l3.29-4A3.09,3.09,0,0,0,347,10c-1-2.16-2.62-1.24-3.78-2.74a3,3,0,0,1,.41-4.45A3.73,3.73,0,0,1,348,2.48,17.26,17.26,0,0,0,342.06,0H329.75c.08.18.09.15.17.31A8.4,8.4,0,0,0,335.9,4.41Z"/><path class="cls-1" d="M263.67,42.42V3.4A3.37,3.37,0,0,0,260.31,0,3.31,3.31,0,0,0,257,3.4V33L232.68,1.45A3.36,3.36,0,0,0,230,.05a3.31,3.31,0,0,0-3.34,3.3V42.77A3.32,3.32,0,0,0,230,46.13a3.37,3.37,0,0,0,3.36-3.36V13.18L257.76,45l0,0a3.36,3.36,0,0,0,2.5,1.13,3.45,3.45,0,0,0,3.4-3.49Z"/><path class="cls-6" d="M33.23,18.89c1.82,2,4.21,0,4.21,0L26.57,0,12.69,24.12c3.14-3,7.17-6.18,10.93-7.63l.12,0a7.74,7.74,0,0,1,3.35-.76A7.24,7.24,0,0,1,33,18.6Z"/><path class="cls-7" d="M16.48,38.41C23.39,30.3,28.56,28.08,34,27.84l.72,0c4.3-.07,7.78.76,10.75,5l-4.29-7.43A5.66,5.66,0,0,0,37.59,24a6.18,6.18,0,0,0-5,1.9,7.34,7.34,0,0,1-5.55,2.44c-3.88,0-7-2.83-7-6.31a6.15,6.15,0,0,1,3.27-5.32,2,2,0,0,1,.33-.19c-3.76,1.45-7.83,4.64-11,7.63L0,46.13c.22,0,.45,0,.68,0h.89A22.36,22.36,0,0,0,16.48,38.41Z"/><path class="cls-8" d="M46.39,34.41c-.29-.5-.58-1.11-.88-1.54-3-4.29-6.45-5.12-10.75-5l-.72,0c-5.48.24-10.65,2.46-17.56,10.57A22.36,22.36,0,0,1,1.57,46.13c9.26-.53,12.65-3.27,17.08-7.35,4.67-4.29,8.79-6.81,16.52.5s18,6.85,18,6.85Z"/></g></g></svg>