<svg xmlns="http://www.w3.org/2000/svg" width="63" height="63" viewBox="0 0 63 63">
  <g id="Group_2535" data-name="Group 2535" transform="translate(-325 -310)">
    <rect id="Rectangle_1770" data-name="Rectangle 1770" width="63" height="63" rx="10" transform="translate(325 310)" fill="#02a4aa"/>
    <g id="Layer_2" data-name="Layer 2" transform="translate(29.195 327.727)">
      <g id="Layer_1" data-name="Layer 1" transform="translate(313.988)">
        <path id="Path_2980" data-name="Path 2980" d="M323.779.827h0V.787h0a1.016,1.016,0,0,1-.187-.42L323.4,0h-6.539a2.229,2.229,0,0,0,0,4.451H327.8A6.566,6.566,0,0,1,323.779.827Z" transform="translate(-314.243)" fill="#fdfeff"/>
        <path id="Path_2981" data-name="Path 2981" d="M337.611,31.408H320.929l8.721-10.523-.334-.727a9.755,9.755,0,0,1-.614-5.038l-14.18,17.1a2.189,2.189,0,0,0-.34,2.335,2.269,2.269,0,0,0,2.049,1.254h21.353a2.2,2.2,0,0,0,2.229-2.222,2.235,2.235,0,0,0-2.2-2.182Z" transform="translate(-313.988 -5.031)" fill="#fdfeff"/>
        <path id="Path_2982" data-name="Path 2982" d="M352.143,0H342.06a11.517,11.517,0,0,1,3.964,1.655,2.8,2.8,0,0,1,.794.908,2.856,2.856,0,0,1,.2,2.075,2.1,2.1,0,0,0,.214,1.335Z" transform="translate(-323.328)" fill="#fdfeff"/>
        <path id="Path_2983" data-name="Path 2983" d="M339.075,11a3.566,3.566,0,0,0,.561-4.477c-.033-.067-.067-.133-.107-.2-.8-1.5-2.189-2.589-5.625-3.27a5.605,5.605,0,0,1-4-2.716,5.706,5.706,0,0,0,4.117,3.336c1.935.667,3.263,1.395,1.8,4.631a8.721,8.721,0,0,0,0,6.606Z" transform="translate(-319.283 -0.113)" fill="#eaeaea"/>
        <path id="Path_2984" data-name="Path 2984" d="M333.854,2.943c3.436.667,4.831,1.768,5.605,3.283a4.671,4.671,0,0,1-.28,4.484l2.2-2.669a2.062,2.062,0,0,0-.113-1.368c-.667-1.441-1.748-.827-2.522-1.828a2,2,0,0,1,.274-2.969,2.489,2.489,0,0,1,2.916-.22A11.517,11.517,0,0,0,337.964,0H329.75c.053.12.06.1.113.207a5.605,5.605,0,0,0,3.99,2.736Z" transform="translate(-319.233)" fill="#b1b1b1"/>
      </g>
    </g>
  </g>
</svg>
