<svg xmlns="http://www.w3.org/2000/svg" xmlns:xlink="http://www.w3.org/1999/xlink" viewBox="0 0 196.21 211.2"><defs><style>.cls-1{fill:#02a4aa;}.cls-2{fill:none;}.cls-3{fill:url(#linear-gradient);}.cls-4{fill:url(#linear-gradient-2);}.cls-5{fill:url(#linear-gradient-3);}</style><linearGradient id="linear-gradient" x1="-387.3" y1="-1792.56" x2="-410.46" y2="-1781.93" gradientTransform="translate(-1184.68 1246.23) rotate(60.29)" gradientUnits="userSpaceOnUse"><stop offset="0" stop-color="#a95f00"/><stop offset="0.36" stop-color="#f80"/><stop offset="1" stop-color="#fa9700"/></linearGradient><linearGradient id="linear-gradient-2" x1="-414.17" y1="-1719.2" x2="-390.06" y2="-1719.63" gradientTransform="translate(-1184.68 1246.23) rotate(60.29)" gradientUnits="userSpaceOnUse"><stop offset="0" stop-color="#a95f00"/><stop offset="1" stop-color="#f80"/></linearGradient><linearGradient id="linear-gradient-3" x1="-442.66" y1="-1751.26" x2="-392.32" y2="-1710.31" gradientTransform="translate(-1184.68 1246.23) rotate(60.29)" gradientUnits="userSpaceOnUse"><stop offset="0" stop-color="#a95f00"/><stop offset="0.39" stop-color="#f80"/><stop offset="0.74" stop-color="#fa9700"/></linearGradient></defs><g id="Layer_2" data-name="Layer 2"><g id="Layer_1-2" data-name="Layer 1"><path class="cls-1" d="M65.19,6.47h0a.16.16,0,0,0,0-.07A2,2,0,0,0,65,6.15h0a30.68,30.68,0,0,1-1.34-2.82L62.61,1H17.91a15.22,15.22,0,0,0,0,30.43H92.64C81.6,27.26,72.82,21.74,65.19,6.47Z"/><path class="cls-1" d="M161.48,181.06h-114l59.61-71.88-2.29-5a66.68,66.68,0,0,1-4.22-34.41L3.68,186.65a14.77,14.77,0,0,0-2.31,15.94,15.44,15.44,0,0,0,14,8.61H161.48A15,15,0,0,0,176.69,196,15.28,15.28,0,0,0,161.48,181.06Z"/><path class="cls-2" d="M72.67,2.37C72.29,1.61,71.92.82,71.55,0A18.83,18.83,0,0,0,72.67,2.37Z"/><path class="cls-3" d="M196.21.64,128.05.29c9.32,2.57,20.08,6.45,26.86,11.84a19.22,19.22,0,0,1,5.42,6.18c3.5,7,1.63,10.1,1.38,14.19-.41,6.73.32,6.74.86,8.36Z"/><path class="cls-4" d="M134.76,74.79c10-12,9.25-20.2,4.33-30.15-.22-.46-.45-.91-.7-1.38-5.47-10.26-15-17.71-38.46-22.35-17.2-3.4-24.7-13.85-27.26-18.54,7.63,15.45,15.93,18.8,28.15,22.82,13.2,4.35,22.3,9.57,12.31,31.66-10.23,22.65-.55,43.78-.55,43.78Z"/><path class="cls-5" d="M99.93,20.91c23.49,4.64,33,12.11,38.33,22.46,6.75,13.22,2.12,22.31-1,28.15,0,0,11.45-14.12,13.44-16.5a11.16,11.16,0,0,0,0-8.72c-4.74-9.82-11.92-5.65-17.21-12.47-5.78-7.45-4.08-15.24,1.85-20.29a17,17,0,0,1,19.55-1.41C148.13,6.74,137.37,2.86,128.05.29L71.55,0c.37.82.74,1.61,1.12,2.37C75.23,7.06,82.73,17.51,99.93,20.91Z"/></g></g></svg>