<svg xmlns="http://www.w3.org/2000/svg" xmlns:xlink="http://www.w3.org/1999/xlink" viewBox="0 0 312.84 105.42"><defs><style>.cls-1{fill:#00a3aa;}.cls-2{fill:#02a4aa;}.cls-3{fill:none;}.cls-4{fill:url(#linear-gradient);}.cls-5{fill:url(#linear-gradient-2);}.cls-6{fill:url(#linear-gradient-3);}.cls-7{fill:#ff961e;}</style><linearGradient id="linear-gradient" x1="-383.55" y1="-1670.67" x2="-391.22" y2="-1667.15" gradientTransform="translate(-1201.21 1168.91) rotate(60.29)" gradientUnits="userSpaceOnUse"><stop offset="0" stop-color="#a95f00"/><stop offset="0.36" stop-color="#f80"/><stop offset="1" stop-color="#fa9700"/></linearGradient><linearGradient id="linear-gradient-2" x1="-392.44" y1="-1646.38" x2="-384.46" y2="-1646.52" gradientTransform="translate(-1201.21 1168.91) rotate(60.29)" gradientUnits="userSpaceOnUse"><stop offset="0" stop-color="#a95f00"/><stop offset="1" stop-color="#f80"/></linearGradient><linearGradient id="linear-gradient-3" x1="-401.88" y1="-1656.99" x2="-385.21" y2="-1643.44" gradientTransform="translate(-1201.21 1168.91) rotate(60.29)" gradientUnits="userSpaceOnUse"><stop offset="0" stop-color="#a95f00"/><stop offset="0.39" stop-color="#f80"/><stop offset="0.74" stop-color="#fa9700"/></linearGradient></defs><g id="Layer_2" data-name="Layer 2"><g id="Layer_1-2" data-name="Layer 1"><path class="cls-1" d="M110.38,10.17a5,5,0,1,0,0-10.08H77.68a5,5,0,0,0-4.94,5V65.62a4.89,4.89,0,0,0,4.94,4.94h32.7a5,5,0,0,0,5-4.94,5,5,0,0,0-5-5H82.72v-20h27.66a5,5,0,1,0,0-10H82.72V10.17Z"/><path class="cls-1" d="M155.74,4a5,5,0,0,0-9.06.17l-27.6,59.64a4.94,4.94,0,0,0,2.43,6.62,4.52,4.52,0,0,0,2.1.51A5.06,5.06,0,0,0,128.14,68l7.08-15.24.58.29a1,1,0,0,0,.38,0h32.71l.28.35,7.37,14.74a5,5,0,0,0,2.91,2.47,4.89,4.89,0,0,0,3.79-.29h0a4.78,4.78,0,0,0,2.52-2.79,5,5,0,0,0-.27-3.92Zm-16,39,11.65-25.15L164,43Z"/><path class="cls-1" d="M229.93,60.58l-28.51.29V5.32A4.89,4.89,0,0,0,196.48.38a5,5,0,0,0-4.95,4.94V65.9a5,5,0,0,0,1.52,3.52,4.85,4.85,0,0,0,3.43,1.43h.09l33.36-.38a4.95,4.95,0,1,0,0-9.89Z"/><path class="cls-1" d="M246.85,0a5.09,5.09,0,0,0-5,5.13V65.34a5.09,5.09,0,1,0,10.17,0V5.13A5.08,5.08,0,0,0,246.85,0Z"/><path class="cls-1" d="M307.81.28H264a5.09,5.09,0,0,0,0,10.17h16.8V65.62a5.09,5.09,0,1,0,10.17,0V10.45h16.89a5.09,5.09,0,0,0,0-10.17Z"/><path class="cls-2" d="M21.59,2.76h0v0l0-.09h0a9.11,9.11,0,0,1-.44-.93L20.73.93H5.93A5,5,0,0,0,5.93,11H30.67C27,9.64,24.11,7.82,21.59,2.76Z"/><path class="cls-2" d="M53.47,60.57H15.73l19.74-23.8-.76-1.66a22.05,22.05,0,0,1-1.4-11.39L1.22,62.42A4.9,4.9,0,0,0,.45,67.7a5.12,5.12,0,0,0,4.63,2.85H53.47a5,5,0,0,0,5-5A5,5,0,0,0,53.47,60.57Z"/><path class="cls-3" d="M24.06,1.4c-.12-.25-.25-.51-.37-.78A6.61,6.61,0,0,0,24.06,1.4Z"/><path class="cls-4" d="M65,.83,42.4.71c3.08.85,6.64,2.14,8.89,3.92a6.3,6.3,0,0,1,1.79,2.05c1.17,2.32.54,3.34.46,4.7-.13,2.23.11,2.23.29,2.77Z"/><path class="cls-5" d="M44.62,25.38c3.31-4,3.06-6.69,1.43-10l-.23-.46c-1.81-3.4-5-5.86-12.73-7.4a12.66,12.66,0,0,1-9-6.14C26.59,6.52,29.34,7.63,33.38,9c4.37,1.44,7.39,3.17,4.08,10.48a18.86,18.86,0,0,0-.18,14.5Z"/><path class="cls-6" d="M33.09,7.54C40.86,9.08,44,11.55,45.78,15c2.23,4.37.7,7.38-.32,9.32,0,0,3.79-4.68,4.45-5.47a3.66,3.66,0,0,0,0-2.88c-1.56-3.25-3.94-1.87-5.7-4.13a4.59,4.59,0,0,1,.62-6.72,5.66,5.66,0,0,1,6.47-.47C49,2.85,45.48,1.56,42.4.71L23.69.62c.12.27.25.53.37.78A12.66,12.66,0,0,0,33.09,7.54Z"/><path class="cls-7" d="M83.32,100.27c-.17,3-2.86,4.69-5.27,5a10.48,10.48,0,0,1-1.25.07,8.56,8.56,0,0,1-6.47-2.84,1.53,1.53,0,0,1,.18-2.13,1.49,1.49,0,0,1,2.11.18,5.68,5.68,0,0,0,5,1.72c1.25-.18,2.62-.94,2.69-2.23a2.51,2.51,0,0,0-2-2.49,8.83,8.83,0,0,0-1.68-.18,7.58,7.58,0,0,1-4.16-1.09,5.29,5.29,0,0,1-2.21-5.61,6.15,6.15,0,0,1,5-4.26,9,9,0,0,1,6.63,1.73A1.52,1.52,0,0,1,80,90.57a5.77,5.77,0,0,0-4.34-1.11,3.06,3.06,0,0,0-2.54,2.08,2.24,2.24,0,0,0,1,2.31,5,5,0,0,0,2.59.55,14.2,14.2,0,0,1,2.18.26A5.55,5.55,0,0,1,83.32,100.27Z"/><path class="cls-7" d="M102.18,87.07v16.16a1.55,1.55,0,0,1-3.1,0V96.81H89.72v6.42a1.55,1.55,0,0,1-3.1,0V87.07a1.55,1.55,0,1,1,3.1,0v6.67h9.36V87.07a1.55,1.55,0,0,1,3.1,0Z"/><path class="cls-7" d="M107.76,105.37a1.54,1.54,0,0,1-1.53-1.55V87.65a1.54,1.54,0,1,1,3.07,0v16.17A1.54,1.54,0,0,1,107.76,105.37Z"/><path class="cls-7" d="M126.15,91.92a5.75,5.75,0,0,1-5.78,5.55h-4v6.37a1.5,1.5,0,0,1-3,0V87.73a1.52,1.52,0,0,1,1.42-1.5v-.15h5.79A5.79,5.79,0,0,1,126.15,91.92Zm-3,0a2.8,2.8,0,0,0-2.56-2.82h-4.21v5.36h4A2.74,2.74,0,0,0,123.13,91.92Z"/><path class="cls-7" d="M141.73,91.92A5.75,5.75,0,0,1,136,97.47h-4v6.37a1.5,1.5,0,0,1-3,0V87.73a1.52,1.52,0,0,1,1.42-1.5v-.15h5.79A5.79,5.79,0,0,1,141.73,91.92Zm-3,0a2.81,2.81,0,0,0-2.56-2.82h-4.21v5.36h4A2.74,2.74,0,0,0,138.71,91.92Z"/><path class="cls-7" d="M146.8,105.37a1.54,1.54,0,0,1-1.52-1.55V87.65a1.54,1.54,0,1,1,3.07,0v16.17A1.54,1.54,0,0,1,146.8,105.37Z"/><path class="cls-7" d="M168,103.87s0,0,0,0v.23a.12.12,0,0,0,0,.08.1.1,0,0,1,0,.08v.07a.1.1,0,0,0,0,.05l-.06.08a.1.1,0,0,1,0,.07s0,0,0,.08l0,.08a.08.08,0,0,0,0,.05s-.05,0-.05,0,0,0,0,0,0,0-.05.07,0,0-.06.06,0,0,0,.05a.05.05,0,0,0-.05,0h0s0,0,0,0a1.16,1.16,0,0,1-.2.13c-.08,0-.13.08-.2.1h0a.59.59,0,0,1-.23,0h0a.4.4,0,0,1-.2,0h-.18l0,0h-.13l-.05,0s-.08,0-.13,0a.08.08,0,0,0,0,0s-.05,0-.08-.06a.1.1,0,0,1-.07,0s-.05,0-.08,0,0,0,0,0-.07,0-.1,0,0,0,0,0a.24.24,0,0,1-.1-.1,0,0,0,0,1,0,0c-.05,0-.07-.07-.1-.1v0l-9.69-12.59v11.65a1.55,1.55,0,1,1-3.1,0V87.58s0,0,0,0v-.08a.1.1,0,0,1,0-.07V87.3a.09.09,0,0,0,0-.08.12.12,0,0,1,0,0s0,0,0-.07l.05-.08a.12.12,0,0,1,0-.08s0,0,.06-.07a.08.08,0,0,1,0-.05l.05,0a.07.07,0,0,1,0,0l.07-.08,0,0,.05,0,.06-.05h0a0,0,0,0,1,0,0s0,0,.07,0,0,0,0,0l.08,0a.08.08,0,0,1,.08,0l.07,0s0,0,0,0a.12.12,0,0,0,.08,0h.07a.1.1,0,0,1,.08,0h.08a.1.1,0,0,1,.07,0h.31a.1.1,0,0,0,.07,0h.08a.06.06,0,0,0,.05,0l.1,0s0,0,.05,0l.08,0s.05,0,.08,0l0,0,.07,0s0,0,0,0,.05,0,.08,0,0,0,0,0l.05,0,.05,0,0,.06a.1.1,0,0,1,.05.07s0,0,0,0l9.69,12.58V87.71a1.55,1.55,0,0,1,3.1,0Z"/><path class="cls-7" d="M188.87,96.26c0,5.27-3.93,9.11-9.36,9.11a9.41,9.41,0,0,1-9.39-9.65,9.64,9.64,0,0,1,16.24-7,1.55,1.55,0,0,1,0,2.18,1.52,1.52,0,0,1-2.15.08,6.46,6.46,0,0,0-4.5-1.8,6.54,6.54,0,0,0-6.54,6.54,6.38,6.38,0,0,0,6.29,6.58,5.94,5.94,0,0,0,6.19-4.9h-3.32a1.54,1.54,0,1,1,0-3.07h4.92a1.53,1.53,0,0,1,1.55,1.52V96A1.19,1.19,0,0,1,188.87,96.26Z"/><path class="cls-7" d="M202.68,97.35v5h7.25a1.53,1.53,0,0,1,1.53,1.52,1.51,1.51,0,0,1-1.53,1.5h-8.78a1.48,1.48,0,0,1-1.49-1.5V87.65a1.51,1.51,0,0,1,1.49-1.52h8.78a1.53,1.53,0,1,1,0,3.05h-7.25v5.15h7.25a1.51,1.51,0,1,1,0,3Z"/><path class="cls-7" d="M226,105.21a1.39,1.39,0,0,1-.71.18,1.44,1.44,0,0,1-1.32-.81l-3.73-7.08H217v6.37a1.5,1.5,0,0,1-3,0V87.78a1.53,1.53,0,0,1,1.42-1.5v-.15h5.79A5.77,5.77,0,0,1,226.75,92a5.55,5.55,0,0,1-3.42,5l3.27,6.19A1.51,1.51,0,0,1,226,105.21Zm-9-10.7h4A2.74,2.74,0,0,0,223.76,92a2.79,2.79,0,0,0-2.56-2.82H217Z"/><path class="cls-7" d="M242.87,91.92a5.75,5.75,0,0,1-5.79,5.55h-4v6.37a1.5,1.5,0,1,1-3,0V87.73a1.52,1.52,0,0,1,1.42-1.5v-.15h5.78A5.8,5.8,0,0,1,242.87,91.92Zm-3,0a2.81,2.81,0,0,0-2.57-2.82h-4.21v5.36h4A2.75,2.75,0,0,0,239.85,91.92Z"/></g></g></svg>