<?xml version="1.0" encoding="UTF-8"?>
<!DOCTYPE svg PUBLIC "-//W3C//DTD SVG 1.1//EN" "http://www.w3.org/Graphics/SVG/1.1/DTD/svg11.dtd">
<svg xmlns="http://www.w3.org/2000/svg" version="1.1" width="1313px" height="458px" style="shape-rendering:geometricPrecision; text-rendering:geometricPrecision; image-rendering:optimizeQuality; fill-rule:evenodd; clip-rule:evenodd" xmlns:xlink="http://www.w3.org/1999/xlink">
<g><path style="opacity:1" fill="#009fa6" d="M 323.5,12.5 C 370.168,12.3333 416.835,12.5 463.5,13C 478.485,16.1183 484.652,25.2849 482,40.5C 479.928,47.5731 475.428,52.4064 468.5,55C 427.835,55.5 387.168,55.6667 346.5,55.5C 346.5,83.8333 346.5,112.167 346.5,140.5C 386.835,140.333 427.168,140.5 467.5,141C 479.738,145.635 484.572,154.468 482,167.5C 479.833,175 475,179.833 467.5,182C 427.168,182.5 386.835,182.667 346.5,182.5C 346.5,209.833 346.5,237.167 346.5,264.5C 385.168,264.333 423.835,264.5 462.5,265C 478.193,267.53 484.693,276.696 482,292.5C 479.758,300.408 474.591,305.241 466.5,307C 417.5,307.667 368.5,307.667 319.5,307C 309.862,304.031 304.696,297.531 304,287.5C 303.333,202.5 303.333,117.5 304,32.5C 306.013,21.3213 312.513,14.6547 323.5,12.5 Z"/></g>
<g><path style="opacity:1" fill="#00a1a8" d="M 1025.5,12.5 C 1037.76,11.2106 1046.26,16.2106 1051,27.5C 1051.67,115.5 1051.67,203.5 1051,291.5C 1047.7,301.653 1040.7,306.986 1030,307.5C 1018.78,306.938 1011.78,301.271 1009,290.5C 1008.33,203.5 1008.33,116.5 1009,29.5C 1011.35,20.6522 1016.85,14.9855 1025.5,12.5 Z"/></g>
<g><path style="opacity:1" fill="#009da4" d="M 813.5,14.5 C 828.478,12.0211 837.645,18.0211 841,32.5C 841.5,110.499 841.667,188.499 841.5,266.5C 880.87,265.956 920.203,265.289 959.5,264.5C 975.028,266.887 981.862,275.887 980,291.5C 977.287,300.214 971.454,305.381 962.5,307C 913.169,307.982 863.835,308.316 814.5,308C 805.357,305.188 800.19,299.022 799,289.5C 798.333,204.167 798.333,118.833 799,33.5C 800.266,24.4053 805.1,18.0719 813.5,14.5 Z"/></g>
<g><path style="opacity:1" fill="#00a1a8" d="M 1286.5,56.5 C 1262.17,56.5 1237.83,56.5 1213.5,56.5C 1213.5,133.833 1213.5,211.167 1213.5,288.5C 1210.41,304.721 1200.74,310.888 1184.5,307C 1176.6,304.271 1172.27,298.771 1171.5,290.5C 1171.5,212.5 1171.5,134.5 1171.5,56.5C 1147.17,56.5 1122.83,56.5 1098.5,56.5C 1082.99,52.8245 1077.15,43.1578 1081,27.5C 1083.17,21.3333 1087.33,17.1667 1093.5,15C 1126.45,13.8473 1159.45,13.3473 1192.5,13.5C 1225.55,13.3473 1258.55,13.8473 1291.5,15C 1302.59,19.9043 1307.09,28.4043 1305,40.5C 1302.65,50.3539 1296.49,55.6873 1286.5,56.5 Z"/></g>
<g><path style="opacity:0.999" fill="#c16a00" d="M 219.5,15.5 C 219.5,15.8333 219.5,16.1667 219.5,16.5C 207.162,16.3335 194.829,16.5001 182.5,17C 193.487,20.0494 203.821,24.5494 213.5,30.5C 214.298,30.9569 214.631,31.6236 214.5,32.5C 205.972,28.3373 197.639,28.6707 189.5,33.5C 189.03,32.3065 188.03,31.6399 186.5,31.5C 158.179,26.5571 129.845,22.0571 101.5,18C 102.337,19.0113 102.67,20.1779 102.5,21.5C 101.229,19.8914 100.229,18.0581 99.5,16C 139.499,15.5 179.499,15.3333 219.5,15.5 Z"/></g>
<g><path style="opacity:1" fill="#f79200" d="M 219.5,16.5 C 226.833,16.5 234.167,16.5 241.5,16.5C 235.474,25.5178 229.474,34.5178 223.5,43.5C 221.533,40.5229 219.533,37.5229 217.5,34.5C 217.027,33.0937 216.027,32.427 214.5,32.5C 214.631,31.6236 214.298,30.9569 213.5,30.5C 203.821,24.5494 193.487,20.0494 182.5,17C 194.829,16.5001 207.162,16.3335 219.5,16.5 Z"/></g>
<g><path style="opacity:1" fill="#f78600" d="M 241.5,16.5 C 247.167,16.5 252.833,16.5 258.5,16.5C 247.467,32.3496 236.3,48.0162 225,63.5C 224.51,62.2068 224.343,60.8734 224.5,59.5C 224.676,54.1203 224.342,48.787 223.5,43.5C 229.474,34.5178 235.474,25.5178 241.5,16.5 Z"/></g>
<g><path style="opacity:1" fill="#02a1a7" d="M 126.5,57.5 C 91.6706,58.4984 56.6706,58.8317 21.5,58.5C 8.14544,54.4809 2.97878,45.4809 6,31.5C 8.2684,23.5648 13.4351,18.7315 21.5,17C 43.8408,16.1669 66.1741,16.3336 88.5,17.5C 95.4522,36.4479 108.119,49.7812 126.5,57.5 Z"/></g>
<g><path style="opacity:1" fill="#009fa6" d="M 705.5,235.5 C 682.343,234.167 658.843,233.5 635,233.5C 611.331,233.5 587.831,233.833 564.5,234.5C 554.619,256.598 544.452,278.598 534,300.5C 522.333,312.5 510.667,312.5 499,300.5C 495.669,294.582 494.669,288.249 496,281.5C 535.06,196.38 574.393,111.38 614,26.5C 626.314,14.2871 638.314,14.6204 650,27.5C 691.667,110.833 733.333,194.167 775,277.5C 780.629,295.59 774.129,305.924 755.5,308.5C 748.378,308.689 742.544,306.023 738,300.5C 727.153,278.807 716.32,257.14 705.5,235.5 Z M 683.5,190.5 C 650.671,191.498 617.671,191.832 584.5,191.5C 600.424,157.572 616.257,123.572 632,89.5C 649.197,123.228 666.363,156.894 683.5,190.5 Z"/></g>
<g><path style="opacity:1" fill="#894d05" d="M 268.5,16.5 C 269.873,16.3433 271.207,16.51 272.5,17C 268.968,21.3602 265.301,25.5268 261.5,29.5C 260.086,27.4017 260.752,26.4017 263.5,26.5C 265.075,23.219 266.742,19.8857 268.5,16.5 Z"/></g>
<g><path style="opacity:1" fill="#e67b00" d="M 189.5,33.5 C 186.076,36.7082 183.409,40.3749 181.5,44.5C 181.5,43.1667 181.5,41.8333 181.5,40.5C 157.818,36.9419 134.151,33.2752 110.5,29.5C 109.5,29.5 108.5,29.5 107.5,29.5C 105.347,27.2063 103.68,24.5396 102.5,21.5C 102.67,20.1779 102.337,19.0113 101.5,18C 129.845,22.0571 158.179,26.5571 186.5,31.5C 188.03,31.6399 189.03,32.3065 189.5,33.5 Z"/></g>
<g><path style="opacity:1" fill="#ad5f03" d="M 219.5,16.5 C 219.5,16.1667 219.5,15.8333 219.5,15.5C 236.009,15.1702 252.342,15.5036 268.5,16.5C 266.742,19.8857 265.075,23.219 263.5,26.5C 260.752,26.4017 260.086,27.4017 261.5,29.5C 258.671,29.3249 257.004,30.6582 256.5,33.5C 255.252,34.0402 254.085,34.7069 253,35.5C 249.825,39.4932 247.325,43.8265 245.5,48.5C 239.236,56.6068 232.736,64.6068 226,72.5C 224.961,71.7562 224.461,70.7562 224.5,69.5C 230.421,60.8895 236.421,52.2228 242.5,43.5C 248.679,39.1555 253.179,33.4889 256,26.5C 258.678,23.2326 261.511,20.066 264.5,17C 262.527,16.5045 260.527,16.3379 258.5,16.5C 252.833,16.5 247.167,16.5 241.5,16.5C 234.167,16.5 226.833,16.5 219.5,16.5 Z"/></g>
<g><path style="opacity:1" fill="#9e5801" d="M 107.5,29.5 C 108.5,29.5 109.5,29.5 110.5,29.5C 114.883,34.5369 120.217,38.3703 126.5,41C 135.822,43.4634 145.155,45.7968 154.5,48C 158.987,49.7008 163.32,51.5342 167.5,53.5C 164.672,55.4701 161.672,57.3034 158.5,59C 159.252,59.6708 159.586,60.5041 159.5,61.5C 156.209,58.5156 152.542,56.0156 148.5,54C 137.102,50.8724 126.436,46.2058 116.5,40C 112.915,36.9219 109.915,33.4219 107.5,29.5 Z"/></g>
<g><path style="opacity:1" fill="#f98600" d="M 110.5,29.5 C 134.151,33.2752 157.818,36.9419 181.5,40.5C 181.5,41.8333 181.5,43.1667 181.5,44.5C 180.93,50.1764 181.93,55.5097 184.5,60.5C 184.672,61.4916 184.338,62.1583 183.5,62.5C 181.228,61.5589 179.228,60.2255 177.5,58.5C 174.172,56.8343 170.838,55.1676 167.5,53.5C 163.32,51.5342 158.987,49.7008 154.5,48C 145.155,45.7968 135.822,43.4634 126.5,41C 120.217,38.3703 114.883,34.5369 110.5,29.5 Z"/></g>
<g><path style="opacity:0.816" fill="#71450d" d="M 214.5,32.5 C 216.027,32.427 217.027,33.0937 217.5,34.5C 215.973,34.573 214.973,33.9063 214.5,32.5 Z"/></g>
<g><path style="opacity:1" fill="#da7601" d="M 258.5,16.5 C 260.527,16.3379 262.527,16.5045 264.5,17C 261.511,20.066 258.678,23.2326 256,26.5C 253.179,33.4889 248.679,39.1555 242.5,43.5C 236.421,52.2228 230.421,60.8895 224.5,69.5C 223.218,66.0641 223.218,62.7307 224.5,59.5C 224.343,60.8734 224.51,62.2068 225,63.5C 236.3,48.0162 247.467,32.3496 258.5,16.5 Z"/></g>
<g><path style="opacity:1" fill="#8f5006" d="M 261.5,29.5 C 256.889,36.4443 251.555,42.7776 245.5,48.5C 247.325,43.8265 249.825,39.4932 253,35.5C 254.085,34.7069 255.252,34.0402 256.5,33.5C 257.004,30.6582 258.671,29.3249 261.5,29.5 Z"/></g>
<g><path style="opacity:0.502" fill="#00494c" d="M 1098.5,56.5 C 1122.83,56.5 1147.17,56.5 1171.5,56.5C 1171.5,134.5 1171.5,212.5 1171.5,290.5C 1170.5,213.002 1170.17,135.335 1170.5,57.5C 1146.33,57.8309 1122.33,57.4976 1098.5,56.5 Z"/></g>
<g><path style="opacity:0.251" fill="#00292b" d="M 1286.5,56.5 C 1262.67,57.4976 1238.67,57.8309 1214.5,57.5C 1214.83,134.668 1214.5,211.668 1213.5,288.5C 1213.5,211.167 1213.5,133.833 1213.5,56.5C 1237.83,56.5 1262.17,56.5 1286.5,56.5 Z"/></g>
<g><path style="opacity:0.502" fill="#015053" d="M 126.5,57.5 C 127.756,57.4614 128.756,57.9614 129.5,59C 93.331,59.831 57.331,59.6643 21.5,58.5C 56.6706,58.8317 91.6706,58.4984 126.5,57.5 Z"/></g>
<g><path style="opacity:1" fill="#ba6601" d="M 167.5,53.5 C 170.838,55.1676 174.172,56.8343 177.5,58.5C 177.489,60.0174 176.823,61.1841 175.5,62C 171.833,64.1667 168.167,66.3333 164.5,68.5C 163.833,71.9773 163.166,75.3107 162.5,78.5C 163.11,72.4889 162.11,66.8222 159.5,61.5C 159.586,60.5041 159.252,59.6708 158.5,59C 161.672,57.3034 164.672,55.4701 167.5,53.5 Z"/></g>
<g><path style="opacity:1" fill="#e77c00" d="M 177.5,58.5 C 179.228,60.2255 181.228,61.5589 183.5,62.5C 186.014,65.5296 188.014,68.863 189.5,72.5C 179.666,79.2541 169.333,85.2541 158.5,90.5C 160.036,86.558 161.37,82.558 162.5,78.5C 163.166,75.3107 163.833,71.9773 164.5,68.5C 168.167,66.3333 171.833,64.1667 175.5,62C 176.823,61.1841 177.489,60.0174 177.5,58.5 Z"/></g>
<g><path style="opacity:1" fill="#f78400" d="M 189.5,72.5 C 196.115,80.6405 198.282,89.9738 196,100.5C 195.109,104.606 193.942,108.606 192.5,112.5C 181.89,126.689 170.557,140.356 158.5,153.5C 157.675,154.386 156.675,154.719 155.5,154.5C 148.033,132.715 149.033,111.382 158.5,90.5C 169.333,85.2541 179.666,79.2541 189.5,72.5 Z"/></g>
<g><path style="opacity:1" fill="#e88b02" d="M 184.5,60.5 C 189.663,65.9574 195.996,69.4574 203.5,71C 210.928,77.2121 212.762,84.7121 209,93.5C 203.482,99.9052 197.982,106.239 192.5,112.5C 193.942,108.606 195.109,104.606 196,100.5C 198.282,89.9738 196.115,80.6405 189.5,72.5C 188.014,68.863 186.014,65.5296 183.5,62.5C 184.338,62.1583 184.672,61.4916 184.5,60.5 Z"/></g>
<g><path style="opacity:1" fill="#02a1a7" d="M 138.5,113.5 C 139.461,115.265 139.795,117.265 139.5,119.5C 139.548,126.197 140.048,132.864 141,139.5C 143.301,149.055 145.968,158.388 149,167.5C 122.288,199.373 95.7883,231.373 69.5,263.5C 68.7109,263.783 68.0442,264.283 67.5,265C 120.499,265.5 173.499,265.667 226.5,265.5C 238.513,267.015 244.846,273.848 245.5,286C 245.063,296.766 239.73,303.766 229.5,307C 158.833,307.667 88.1667,307.667 17.5,307C 7.16639,304.331 1.49972,297.664 0.5,287C 0.875437,282.12 2.37544,277.62 5,273.5C 49.741,220.269 94.241,166.935 138.5,113.5 Z"/></g>
<g><path style="opacity:0.251" fill="#043638" d="M 139.5,119.5 C 139.795,117.265 139.461,115.265 138.5,113.5C 138.783,112.711 139.283,112.044 140,111.5C 140.801,114.367 140.634,117.034 139.5,119.5 Z"/></g>
<g><path style="opacity:0.502" fill="#005255" d="M 683.5,190.5 C 684.043,190.56 684.376,190.893 684.5,191.5C 651.002,192.83 617.669,192.83 584.5,191.5C 617.671,191.832 650.671,191.498 683.5,190.5 Z"/></g>
<g><path style="opacity:0.753" fill="#01787d" d="M 564.5,234.5 C 587.831,233.833 611.331,233.5 635,233.5C 658.843,233.5 682.343,234.167 705.5,235.5C 658.572,234.505 611.572,234.172 564.5,234.5 Z"/></g>
<g><path style="opacity:0.251" fill="#01282a" d="M 69.5,263.5 C 121.833,264.167 174.167,264.833 226.5,265.5C 173.499,265.667 120.499,265.5 67.5,265C 68.0442,264.283 68.7109,263.783 69.5,263.5 Z"/></g>
<g><path style="opacity:1" fill="#ec8b1c" d="M 575.5,370.5 C 589.285,369.039 601.118,373.039 611,382.5C 612.518,388.151 610.518,391.484 605,392.5C 599.651,389.913 594.151,387.413 588.5,385C 572.394,382.781 561.561,389.281 556,404.5C 553.727,419.123 559.227,429.623 572.5,436C 577.746,437.506 583.079,437.839 588.5,437C 594.345,434.828 599.845,431.994 605,428.5C 610.864,429.885 612.864,433.551 611,439.5C 600.605,449.895 588.105,453.728 573.5,451C 546.891,442.029 537.058,423.863 544,396.5C 549.895,382.093 560.395,373.427 575.5,370.5 Z"/></g>
<g><path style="opacity:1" fill="#f08d1c" d="M 630.5,370.5 C 641.564,370.094 652.564,370.594 663.5,372C 677.894,380.409 681.727,392.242 675,407.5C 672.433,411.7 668.933,414.867 664.5,417C 669.382,425.263 673.882,433.763 678,442.5C 678.218,451.601 674.218,453.934 666,449.5C 660.632,439.624 655.465,429.624 650.5,419.5C 646.217,418.508 641.884,418.174 637.5,418.5C 637.666,428.506 637.5,438.506 637,448.5C 633,452.5 629,452.5 625,448.5C 624.333,423.833 624.333,399.167 625,374.5C 626.456,372.535 628.29,371.201 630.5,370.5 Z M 637.5,384.5 C 644.508,384.334 651.508,384.5 658.5,385C 667.017,392.695 666.351,399.362 656.5,405C 650.175,405.5 643.842,405.666 637.5,405.5C 637.5,398.5 637.5,391.5 637.5,384.5 Z"/></g>
<g><path style="opacity:1" fill="#f28e1d" d="M 748.5,448.5 C 748.833,431.487 748.499,414.487 747.5,397.5C 746.702,397.957 746.369,398.624 746.5,399.5C 741.887,406.62 737.054,413.62 732,420.5C 726.48,423.806 721.813,422.806 718,417.5C 714.054,411.221 709.721,405.221 705,399.5C 704.667,415.833 704.333,432.167 704,448.5C 700.045,452.489 696.045,452.489 692,448.5C 691.333,423.5 691.333,398.5 692,373.5C 696.625,369.354 700.959,369.687 705,374.5C 711.755,384.344 718.755,394.01 726,403.5C 733.955,393.089 741.788,382.589 749.5,372C 753.388,369.777 756.888,370.277 760,373.5C 761.647,397.746 761.98,422.079 761,446.5C 760.89,448.848 759.723,450.348 757.5,451C 755.167,451.667 752.833,451.667 750.5,451C 749.619,450.292 748.953,449.458 748.5,448.5 Z"/></g>
<g><path style="opacity:0.753" fill="#b96d16" d="M 748.5,448.5 C 747.833,432.167 747.167,415.833 746.5,399.5C 746.369,398.624 746.702,397.957 747.5,397.5C 748.499,414.487 748.833,431.487 748.5,448.5 Z"/></g>
</svg>
