<svg 
    xmlns="http://www.w3.org/2000/svg" 
    version="1.0" 
    viewBox="0 0 11059.000000 2515.000000" 
    preserveAspectRatio="xMidYMid meet">
    <g 
        transform="translate(0.000000,2515.000000) scale(0.100000,-0.100000)" 
        fill="#000000" 
        stroke="none">
        <path 
            d="M95990 22309 c-141 -14 -330 -55 -464 -100 -518 -172 -950 -590 -1111 -1073 -61 -183 -70 -246 -70 -496 0 -199 3 -237 23 -329 58 -257 182 -493 374 -710 248 -282 592 -515 1515 -1027 904 -502 1036 -586 1230 -787 145 -150 232 -296 290 -484 24 -79 27 -104 27 -243 1 -133 -2 -166 -22 -234 -91 -316 -338 -576 -664 -702 -372 -144 -892 -136 -1320 20 -358 130 -670 358 -847 616 -147 214 -271 556 -352 968 l-22 112 -88 0 -89 0 0 -1095 0 -1095 89 0 89 0 7 48 c13 90 53 196 90 239 50 58 127 87 215 80 83 -7 266 -53 490 -124 690 -218 786 -237 1220 -237 279 -1 364 7 571 50 537 112 997 435 1280 899 91 149 160 338 196 535 26 147 24 431 -5 577 -77 388 -296 739 -627 1009 -182 149 -593 397 -1105 669 -1066 566 -1486 851 -1675 1135 -182 273 -178 609 11 898 108 165 302 329 482 407 446 194 1054 111 1532 -208 416 -277 651 -685 765 -1327 14 -80 28 -155 31 -167 4 -22 9 -23 94 -23 l90 0 0 1105 0 1106 -91 -3 -92 -3 -18 -67 c-59 -214 -144 -294 -314 -292 -93 1 -151 19 -404 123 -273 113 -491 177 -737 216 -120 19 -462 27 -594 14z" 
            fill="#201652"/>
        <path 
            d="M104420 22309 c-141 -14 -330 -55 -464 -100 -518 -172 -950 -590 -1111 -1073 -61 -183 -70 -246 -70 -496 0 -199 3 -237 23 -329 58 -257 182 -493 374 -710 248 -282 592 -515 1515 -1027 904 -502 1036 -586 1230 -787 145 -150 232 -296 290 -484 24 -79 27 -104 27 -243 1 -133 -2 -166 -22 -234 -91 -316 -338 -576 -664 -702 -372 -144 -892 -136 -1320 20 -358 130 -670 358 -847 616 -147 214 -271 556 -352 968 l-22 112 -88 0 -89 0 0 -1095 0 -1095 89 0 89 0 7 48 c13 90 53 196 90 239 50 58 127 87 215 80 83 -7 266 -53 490 -124 690 -218 786 -237 1220 -237 279 -1 364 7 571 50 537 112 997 435 1280 899 91 149 160 338 196 535 26 147 24 431 -5 577 -77 388 -296 739 -627 1009 -182 149 -593 397 -1105 669 -1066 566 -1486 851 -1675 1135 -182 273 -178 609 11 898 108 165 302 329 482 407 446 194 1054 111 1532 -208 416 -277 651 -685 765 -1327 14 -80 28 -155 31 -167 4 -22 9 -23 94 -23 l90 0 0 1105 0 1106 -91 -3 -92 -3 -18 -67 c-59 -214 -144 -294 -314 -292 -93 1 -151 19 -404 123 -273 113 -491 177 -737 216 -120 19 -462 27 -594 14z" 
            fill="#201652"/>
        <path 
            d="M4470 22294 c-879 -59 -1572 -315 -2188 -806 -155 -124 -456 -423 -576 -573 -140 -175 -297 -419 -394 -613 -166 -332 -263 -649 -318 -1037 -21 -151 -30 -636 -15 -801 69 -731 347 -1350 881 -1957 539 -614 1326 -1136 2880 -1909 1230 -611 1694 -893 2077 -1261 339 -327 547 -681 625 -1070 32 -159 33 -442 0 -602 -68 -342 -229 -633 -497 -900 -173 -174 -330 -285 -548 -390 -349 -168 -767 -247 -1232 -232 -754 25 -1451 297 -2114 825 -704 561 -1182 1273 -1516 2254 -87 253 -144 465 -240 886 -5 22 -7 22 -170 22 l-165 0 0 -2310 0 -2310 165 0 165 0 46 93 c156 310 389 522 673 611 106 34 210 42 326 27 186 -25 335 -71 700 -219 725 -293 1151 -415 1650 -476 425 -52 988 -44 1418 19 961 141 1766 549 2422 1227 544 562 869 1202 975 1923 86 591 25 1216 -172 1745 -326 875 -935 1505 -2186 2257 -335 202 -590 338 -1382 738 -1565 791 -1864 970 -2272 1363 -377 364 -537 666 -567 1066 -32 434 115 816 443 1155 308 317 655 484 1161 557 151 22 559 25 715 6 601 -76 1148 -316 1670 -735 763 -612 1253 -1434 1459 -2447 18 -85 34 -165 37 -177 4 -23 6 -23 190 -23 l186 0 -6 198 c-4 108 -24 940 -46 1847 -22 908 -42 1737 -46 1843 l-6 192 -134 0 -134 0 -6 -27 c-59 -255 -124 -456 -181 -565 -88 -168 -263 -260 -467 -245 -156 12 -411 100 -760 263 -776 365 -1152 482 -1763 550 -130 14 -639 26 -763 18z" 
            fill="#201652"/>
        <path 
            d="M31281 22218 c-16 -35 -1011 -2254 -2211 -4933 -2452 -5471 -2306 -5148 -2486 -5505 -402 -800 -677 -1165 -1049 -1397 -191 -119 -453 -216 -697 -258 l-38 -6 0 -164 0 -165 2035 0 2035 0 0 165 c0 91 -3 165 -7 165 -45 0 -468 46 -602 66 -434 62 -600 125 -765 290 -153 153 -222 325 -233 574 -6 155 9 284 56 470 67 265 111 374 453 1143 l272 607 2146 0 2146 0 194 -447 c759 -1750 775 -1793 787 -2038 9 -189 -31 -310 -138 -415 -170 -167 -534 -250 -1101 -250 l-198 0 0 -165 0 -165 2960 0 2960 0 0 164 0 164 -52 7 c-389 48 -652 159 -849 356 -203 203 -417 545 -703 1124 -201 406 42 -143 -2540 5730 l-2171 4940 -88 3 -88 3 -28 -63z m-137 -6200 c493 -1137 896 -2069 896 -2072 0 -3 -831 -6 -1846 -6 -1754 0 -1846 1 -1841 18 4 14 1733 3890 1838 4121 l30 66 13 -30 c7 -16 417 -960 910 -2097z" 
            fill="#201652"/>
        <path 
            d="M46485 22171 c17 -16 1931 -1744 4255 -3841 2324 -2097 4236 -3823 4249 -3835 l23 -23 -4273 -4398 -4274 -4398 -3 -1195 c-1 -700 2 -1191 7 -1186 106 114 10011 11180 10011 11185 0 4 -1872 1743 -4161 3864 l-4161 3856 -851 0 -852 0 30 -29z" 
            fill="#b02029"/>
        <path 
            d="M49670 22107 c52 -51 1872 -1788 4043 -3861 2171 -2072 3947 -3772 3945 -3776 -2 -5 -2522 -2808 -5601 -6229 l-5597 -6221 2 -1006 3 -1005 5210 5897 c2866 3243 5224 5913 5242 5933 l32 36 1828 -1828 1828 -1827 3020 2 3021 3 -3358 3295 -3357 3295 28 30 c121 129 6681 7326 6681 7330 0 3 -969 5 -2153 5 l-2154 0 -2252 -2410 -2252 -2411 -127 120 c-70 66 -1220 1155 -2557 2420 l-2430 2300 -1570 0 -1570 0 95 -92z" 
            fill="#b02029"/>
        <path 
            d="M66960 22097 l0 -85 208 -5 c165 -4 222 -9 283 -25 115 -31 212 -84 284 -155 68 -67 93 -120 120 -246 40 -191 40 -198 40 -2596 0 -2444 0 -2444 -46 -2622 -25 -100 -43 -135 -103 -201 -66 -72 -148 -124 -244 -156 -107 -35 -191 -46 -379 -46 l-163 0 0 -85 0 -85 1400 0 1400 0 0 84 0 84 -207 5 c-170 3 -222 8 -286 25 -120 33 -203 78 -278 152 -75 74 -99 124 -130 275 -34 169 -39 325 -39 1358 l0 1010 33 -7 c777 -164 1421 -165 1912 -5 256 84 477 213 653 383 290 280 446 592 498 1000 20 157 15 431 -10 569 -53 290 -194 558 -412 787 -332 345 -689 521 -1244 609 -336 54 -340 54 -1867 58 l-1423 4 0 -84z m2773 -321 c500 -91 843 -393 1007 -885 66 -196 81 -290 87 -521 6 -229 -10 -364 -62 -529 -124 -390 -430 -706 -800 -824 -143 -46 -190 -52 -385 -51 -186 1 -424 27 -665 72 l-90 17 -3 1327 c-2 1257 -1 1327 15 1332 45 13 277 55 358 65 50 6 101 13 115 15 53 9 339 -3 423 -18z" fill="#201652"/>
        <path 
            d="M75400 22096 l0 -84 203 -5 c165 -3 217 -8 282 -26 110 -30 189 -68 262 -129 97 -81 136 -176 171 -417 16 -111 17 -292 17 -2445 0 -2429 0 -2415 -42 -2605 -23 -104 -58 -171 -127 -239 -72 -72 -172 -128 -283 -158 -63 -17 -117 -22 -280 -25 l-203 -5 0 -84 0 -84 1395 0 1395 0 0 84 0 84 -207 5 c-230 5 -308 19 -419 75 -131 66 -208 152 -245 271 -59 192 -71 471 -67 1610 l3 853 341 2 342 1 1102 -1492 1103 -1493 873 0 874 0 0 84 0 85 -47 6 c-391 53 -687 157 -899 316 -160 119 -329 293 -531 544 -100 124 -1523 2063 -1523 2075 0 4 19 11 43 15 74 13 318 86 436 131 156 61 367 171 481 252 322 229 548 585 616 972 23 131 23 401 0 535 -54 306 -199 570 -443 805 -142 137 -266 224 -438 309 -214 106 -429 166 -740 205 -388 49 -641 56 -2117 56 l-1328 0 0 -84z m2805 -286 c347 -40 603 -157 821 -374 181 -181 280 -361 341 -616 34 -144 43 -429 19 -570 -49 -279 -175 -513 -385 -713 -193 -183 -420 -302 -719 -376 -247 -61 -435 -81 -778 -81 l-254 0 0 1324 0 1324 89 16 c363 67 659 89 866 66z" 
            fill="#201652"/>
        <path 
            d="M84950 22096 l0 -83 213 -6 c235 -6 327 -22 442 -77 76 -36 159 -109 187 -163 52 -104 77 -254 88 -552 12 -317 12 -4124 0 -4465 -14 -381 -41 -491 -145 -596 -60 -60 -178 -121 -310 -160 -80 -24 -112 -27 -282 -32 l-193 -4 0 -84 0 -84 2516 2 2516 3 274 780 c151 429 277 788 280 798 5 15 -4 17 -93 17 l-98 -1 -60 -111 c-178 -329 -422 -659 -602 -814 -249 -214 -451 -286 -878 -314 -207 -13 -1557 -13 -1650 0 -120 17 -168 36 -224 86 -59 53 -84 96 -102 175 -9 41 -13 354 -16 1302 l-4 1248 848 -4 c748 -3 859 -5 942 -20 116 -22 229 -59 301 -100 79 -44 201 -169 233 -239 34 -72 80 -258 109 -444 l23 -144 88 0 87 0 0 1115 0 1116 -87 -3 -88 -3 -8 -95 c-16 -195 -80 -409 -158 -530 -101 -157 -217 -225 -464 -272 -105 -20 -146 -21 -967 -25 l-858 -4 0 1260 0 1261 983 0 c978 0 1171 -5 1335 -36 180 -33 314 -105 435 -234 86 -92 135 -182 192 -360 31 -96 105 -387 105 -412 0 -5 43 -8 95 -8 52 0 95 3 95 8 0 4 -16 306 -35 672 -19 366 -35 677 -35 693 l0 27 -2515 0 -2515 0 0 -84z" 
            fill="#201652"/>
        <path 
            d="M10670 21856 l0 -164 328 -5 c337 -5 429 -13 592 -56 299 -77 572 -271 679 -484 60 -120 92 -313 111 -672 14 -263 13 -8873 0 -9130 -13 -229 -33 -404 -59 -506 -60 -236 -220 -440 -427 -547 -256 -131 -485 -172 -961 -172 l-263 0 0 -165 0 -165 3200 0 3200 0 0 165 0 165 -262 0 c-371 0 -566 22 -758 86 -250 84 -478 260 -586 450 -57 101 -89 264 -115 579 -9 99 -13 767 -16 2288 l-4 2147 2166 0 2167 0 -5 -2127 c-5 -2150 -7 -2274 -42 -2539 -20 -144 -38 -212 -80 -302 -125 -265 -337 -432 -657 -517 -178 -47 -273 -57 -620 -62 l-328 -5 0 -164 0 -164 3195 0 3195 0 0 164 0 164 -322 5 c-344 5 -440 15 -615 62 -306 84 -571 281 -675 502 -36 76 -62 201 -85 404 -16 143 -17 471 -21 4664 -2 3225 0 4570 8 4720 18 346 44 500 106 630 127 268 334 432 655 519 176 48 272 58 622 63 l327 5 0 164 0 164 -3195 0 -3195 0 0 -164 0 -164 328 -5 c272 -4 346 -8 442 -25 294 -53 494 -147 678 -317 139 -129 198 -252 231 -482 41 -285 43 -396 48 -2435 l5 -1968 -2167 0 -2166 0 4 1988 c3 1334 8 2030 15 2117 28 324 52 438 119 567 155 301 389 452 818 529 102 18 171 22 453 26 l332 5 0 164 0 164 -3200 0 -3200 0 0 -164z" 
            fill="#201652"/>
        <path 
            d="M38350 21855 l0 -165 263 0 c370 0 555 -21 752 -85 288 -94 545 -315 621 -533 32 -92 58 -274 76 -517 19 -276 19 -9023 0 -9285 -23 -307 -44 -426 -98 -552 -136 -318 -386 -490 -824 -568 -107 -19 -173 -23 -457 -27 l-333 -5 0 -164 0 -164 5435 0 c4029 0 5435 3 5435 11 0 15 448 4214 454 4257 l5 32 -187 0 -187 0 -18 -63 c-210 -723 -510 -1482 -765 -1932 -80 -142 -250 -392 -354 -523 -120 -150 -334 -366 -468 -473 -423 -339 -883 -517 -1540 -595 -110 -14 -283 -17 -945 -21 -1012 -6 -1401 9 -1609 63 -131 34 -300 141 -382 242 -125 153 -169 343 -194 837 -16 301 -8 8868 8 9015 31 284 52 372 117 499 134 257 324 400 647 486 190 50 267 57 686 62 l392 5 0 164 0 164 -3265 0 -3265 0 0 -165z" 
            fill="#201652"/>
        <path 
            d="M61480 14486 c184 -183 1682 -1669 3329 -3301 l2993 -2966 18422 5 c10131 4 19061 9 19844 12 l1422 6 0 1992 c0 1095 3 2575 7 3289 l6 1297 -23179 0 -23179 0 335 -334z m13818 -617 c522 -56 984 -285 1384 -683 405 -404 631 -858 725 -1456 26 -164 25 -681 0 -855 -89 -601 -325 -1082 -732 -1490 -310 -312 -678 -528 -1075 -631 -247 -64 -612 -91 -875 -65 -679 69 -1253 396 -1670 951 -259 344 -416 754 -481 1255 -24 184 -24 611 0 790 81 603 306 1066 715 1476 425 424 912 654 1511 712 84 9 409 6 498 -4z m5857 -13 c182 -29 353 -80 775 -229 197 -69 225 -74 283 -49 71 32 93 80 122 265 l6 37 69 0 c46 0 70 -4 70 -12 0 -21 119 -1473 124 -1515 l6 -43 -69 0 -69 0 -18 53 c-33 99 -115 292 -166 387 -121 229 -288 431 -467 565 -177 133 -416 232 -666 276 -185 32 -475 32 -659 0 -338 -59 -615 -192 -840 -402 -535 -501 -786 -1406 -646 -2329 69 -454 246 -889 499 -1225 66 -88 224 -248 316 -320 225 -175 507 -299 792 -349 359 -64 791 6 1166 186 l128 62 -4 845 c-4 885 -7 935 -49 1050 -27 70 -111 161 -182 196 -64 31 -168 51 -313 60 l-113 8 0 68 0 69 970 0 970 0 0 -69 0 -68 -108 -6 c-203 -10 -319 -73 -387 -206 -9 -19 -27 -75 -38 -125 -20 -87 -21 -128 -26 -1006 l-6 -915 -70 -37 c-196 -104 -515 -229 -739 -288 -305 -81 -527 -105 -951 -104 -353 0 -455 9 -717 60 -758 148 -1340 565 -1717 1230 -344 606 -404 1392 -162 2096 85 245 185 442 346 683 418 622 1020 1006 1725 1099 179 24 180 24 455 21 179 -2 291 -8 360 -19z m7194 -10 c156 -34 308 -83 480 -156 190 -80 237 -94 307 -94 116 1 179 60 224 212 l22 72 69 0 69 0 0 -860 0 -860 -69 0 c-80 0 -68 -17 -96 148 -33 195 -105 432 -172 567 -75 148 -207 310 -339 416 -261 207 -642 324 -947 290 -136 -15 -221 -40 -337 -98 -82 -41 -110 -62 -201 -153 -165 -163 -229 -303 -229 -497 0 -315 185 -529 760 -880 138 -84 287 -168 600 -338 580 -316 873 -514 1029 -694 152 -177 247 -360 302 -581 31 -128 34 -408 5 -540 -57 -263 -171 -467 -375 -670 -260 -259 -550 -394 -945 -441 -127 -15 -469 -6 -592 15 -106 18 -254 60 -514 144 -332 108 -438 131 -510 112 -79 -21 -136 -107 -155 -233 l-7 -47 -69 0 -69 0 0 855 0 855 69 0 68 0 18 -92 c63 -329 159 -595 275 -762 28 -41 91 -112 138 -158 337 -324 856 -472 1327 -377 293 59 517 226 636 474 145 300 60 650 -223 921 -138 132 -262 210 -993 624 -533 302 -792 477 -975 660 -271 270 -390 544 -390 895 0 352 129 647 395 903 192 186 408 302 665 361 151 35 212 40 425 36 169 -3 219 -7 324 -29z m12478 19 c276 -37 521 -113 789 -248 181 -91 245 -102 335 -56 73 36 150 152 180 270 l13 49 67 0 67 0 7 -72 c9 -116 105 -1553 105 -1587 l0 -31 -58 0 -58 0 -33 103 c-269 829 -749 1255 -1485 1318 -437 37 -871 -94 -1189 -359 -197 -164 -375 -430 -498 -746 -219 -562 -272 -1455 -122 -2081 63 -266 193 -561 323 -735 126 -168 289 -319 455 -420 568 -349 1398 -356 1917 -18 229 150 485 416 744 776 3 4 36 -13 86 -45 l37 -23 -21 -37 c-12 -21 -63 -101 -113 -178 -322 -493 -688 -794 -1156 -949 -270 -90 -502 -121 -849 -113 -245 6 -362 19 -557 63 -663 148 -1209 595 -1528 1249 -193 396 -276 806 -262 1295 11 382 71 679 202 1006 281 701 805 1208 1495 1449 174 60 424 114 590 128 128 10 409 6 517 -8z m4362 -19 c156 -34 308 -83 480 -156 190 -80 237 -94 307 -94 116 1 179 60 224 212 l22 72 69 0 69 0 0 -860 0 -860 -69 0 c-80 0 -68 -17 -96 148 -33 195 -105 432 -172 567 -75 148 -207 310 -339 416 -261 207 -642 324 -947 290 -136 -15 -221 -40 -337 -98 -82 -41 -110 -62 -201 -153 -165 -163 -229 -303 -229 -497 0 -315 185 -529 760 -880 138 -84 287 -168 600 -338 580 -316 873 -514 1029 -694 152 -177 247 -360 302 -581 31 -128 34 -408 5 -540 -57 -263 -171 -467 -375 -670 -260 -259 -550 -394 -945 -441 -127 -15 -469 -6 -592 15 -106 18 -254 60 -514 144 -332 108 -438 131 -510 112 -79 -21 -136 -107 -155 -233 l-7 -47 -69 0 -69 0 0 855 0 855 69 0 68 0 18 -92 c63 -329 159 -595 275 -762 28 -41 91 -112 138 -158 337 -324 856 -472 1327 -377 293 59 517 226 636 474 145 300 60 650 -223 921 -138 132 -262 210 -993 624 -533 302 -792 477 -975 660 -271 270 -390 544 -390 895 0 352 129 647 395 903 192 186 408 302 665 361 151 35 212 40 425 36 169 -3 219 -7 324 -29z m-35209 -146 l0 -70 -62 0 c-100 0 -288 -18 -369 -35 -141 -29 -294 -128 -343 -222 -63 -122 -68 -299 -63 -2243 3 -1490 5 -1673 20 -1737 22 -100 47 -152 91 -191 84 -73 145 -81 666 -89 726 -10 1040 21 1243 123 113 57 185 110 282 209 136 136 262 337 380 605 26 58 50 109 55 113 11 12 120 -12 120 -25 0 -9 -182 -592 -371 -1190 l-50 -158 -1930 0 -1929 0 0 69 0 68 158 6 c230 8 329 41 428 143 57 58 85 118 106 231 20 103 19 3835 -1 3943 -29 162 -89 253 -203 311 -92 47 -159 60 -330 66 l-158 6 0 68 0 69 1130 0 1130 0 0 -70z m15770 1 l0 -68 -157 -6 c-164 -6 -224 -17 -315 -59 -116 -54 -180 -139 -215 -288 -16 -70 -17 -201 -21 -1945 -3 -1907 -1 -1999 35 -2128 30 -108 136 -193 308 -247 54 -17 104 -23 218 -27 l147 -6 0 -68 0 -69 -1070 0 -1070 0 0 70 0 70 113 0 c290 1 459 70 535 220 68 135 65 56 69 2030 4 1748 1 1989 -28 2133 -41 200 -251 316 -576 317 l-113 0 0 70 0 70 1070 0 1070 0 0 -69z m8994 37 c3 -18 14 -249 26 -513 11 -264 23 -513 26 -552 l6 -73 -75 0 -74 0 -7 58 c-9 81 -50 256 -76 324 -58 156 -204 313 -354 383 -176 83 -275 95 -789 95 l-377 0 3 -2057 c3 -2216 1 -2101 52 -2243 31 -88 137 -168 271 -205 36 -10 119 -18 217 -22 l157 -6 0 -68 0 -69 -1060 0 -1060 0 0 69 0 68 158 6 c230 9 329 42 428 143 56 57 74 98 102 232 14 69 16 297 19 2115 l4 2037 -343 0 c-675 0 -795 -26 -978 -210 -47 -47 -100 -111 -119 -142 -67 -114 -111 -256 -132 -419 l-12 -89 -68 0 -69 0 0 63 c0 34 11 278 25 542 14 264 25 499 25 523 l0 42 2035 0 2034 0 5 -32z m2686 -37 l0 -68 -157 -6 c-164 -6 -224 -17 -315 -59 -116 -54 -180 -139 -215 -288 -16 -70 -17 -201 -21 -1945 -3 -1907 -1 -1999 35 -2128 30 -108 136 -193 308 -247 54 -17 104 -23 218 -27 l147 -6 0 -68 0 -69 -1070 0 -1070 0 0 70 0 70 113 0 c290 1 459 70 535 220 68 135 65 56 69 2030 4 1748 1 1989 -28 2133 -41 200 -251 316 -576 317 l-113 0 0 70 0 70 1070 0 1070 0 0 -69z" 
            fill="#b02029"/>
        <path 
            d="M74845 13614 c-353 -36 -619 -157 -844 -384 -324 -327 -514 -800 -583 -1450 -20 -194 -17 -796 5 -980 51 -410 128 -698 263 -980 216 -450 527 -732 918 -830 419 -106 881 -27 1211 208 491 349 721 884 766 1788 18 344 -6 764 -62 1074 -46 259 -122 506 -219 708 -229 477 -567 744 -1044 827 -89 15 -336 27 -411 19z" 
            fill="#b02029"/>
    </g>
</svg>
