<svg 
    version="1.0" 
    xmlns="http://www.w3.org/2000/svg" 
    viewBox="0 0 304.000000 334.000000" 
    preserveAspectRatio="xMidYMid meet">
    <g 
        transform="translate(0.000000,334.000000) scale(0.100000,-0.100000)" 
        fill="#000000" 
        stroke="none"> 
        <path 
            d="M32 3316 c113 -100 1248 -1128 1251 -1134 2 -4 -283 -302 -634 -662 l-638 -655 -1 -174 c0 -96 2 -172 4 -170 2 2 337 375 745 827 407 453 741 827 741 832 0 4 -280 267 -622 584 l-621 576 -126 0 -126 -1 27 -23z" 
            fill="#b02029" /> 
        <path 
            d="M486 3331 c123 -115 1200 -1145 1201 -1150 1 -3 -375 -422 -837 -931 l-839 -925 0 -155 0 -155 32 35 c18 19 371 419 786 888 l754 854 276 -276 276 -276 449 2 448 3 -498 490 c-275 270 -499 493 -499 497 0 3 223 250 495 549 272 298 497 546 498 550 2 5 -140 9 -316 9 l-320 0 -336 -360 c-186 -198 -340 -360 -344 -360 -4 0 -178 162 -387 360 l-380 360 -234 0 c-137 0 -231 -4 -225 -9z" 
            fill="#b02029" /> 
    </g> 
</svg>
