<?xml version="1.0" encoding="UTF-8"?>
<!DOCTYPE svg PUBLIC "-//W3C//DTD SVG 1.1//EN" "http://www.w3.org/Graphics/SVG/1.1/DTD/svg11.dtd">
<svg xmlns="http://www.w3.org/2000/svg" version="1.1" width="512px" height="512px" style="shape-rendering:geometricPrecision; text-rendering:geometricPrecision; image-rendering:optimizeQuality; fill-rule:evenodd; clip-rule:evenodd" xmlns:xlink="http://www.w3.org/1999/xlink">
<g><path style="opacity:1" fill="#e7d7be" d="M 229.5,-0.5 C 247.167,-0.5 264.833,-0.5 282.5,-0.5C 282.5,4.83333 282.5,10.1667 282.5,15.5C 282.667,39.169 282.5,62.8357 282,86.5C 273.333,77.8333 264.667,69.1667 256,60.5C 247.333,69.1667 238.667,77.8333 230,86.5C 229.5,62.8357 229.333,39.169 229.5,15.5C 229.5,10.1667 229.5,4.83333 229.5,-0.5 Z"/></g>
<g><path style="opacity:0.994" fill="#c5a06e" d="M 229.5,15.5 C 229.333,39.169 229.5,62.8357 230,86.5C 238.667,77.8333 247.333,69.1667 256,60.5C 264.667,69.1667 273.333,77.8333 282,86.5C 282.5,62.8357 282.667,39.169 282.5,15.5C 306.524,14.8433 330.19,15.51 353.5,17.5C 352.087,20.2186 351.42,23.2186 351.5,26.5C 337.218,111.259 291.551,172.426 214.5,210C 251.832,210.5 289.165,210.667 326.5,210.5C 326.333,239.835 326.5,269.169 327,298.5C 335.667,289.833 344.333,281.167 353,272.5C 361.348,281.014 369.848,289.348 378.5,297.5C 379.5,268.174 379.833,238.841 379.5,209.5C 403.524,208.843 427.19,209.51 450.5,211.5C 449.518,215.316 448.851,219.316 448.5,223.5C 433.789,310.522 385.789,370.856 304.5,404.5C 288.5,404.5 272.5,404.5 256.5,404.5C 256.667,340.166 256.5,275.832 256,211.5C 255.023,213.74 254.523,216.073 254.5,218.5C 237.997,307.311 188.33,369.311 105.5,404.5C 90.8333,404.5 76.1667,404.5 61.5,404.5C 61.5,339.5 61.5,274.5 61.5,209.5C 85.1667,209.5 108.833,209.5 132.5,209.5C 132.333,239.169 132.5,268.835 133,298.5C 141.667,289.833 150.333,281.167 159,272.5C 167.667,281.167 176.333,289.833 185,298.5C 185.5,269.169 185.667,239.835 185.5,210.5C 176.318,210.827 167.318,210.493 158.5,209.5C 158.5,144.833 158.5,80.1667 158.5,15.5C 182.167,15.5 205.833,15.5 229.5,15.5 Z"/></g>
<g><path style="opacity:0.863" fill="#9a784f" d="M 353.5,17.5 C 353.5,81.5 353.5,145.5 353.5,209.5C 344.682,210.493 335.682,210.827 326.5,210.5C 334.984,209.507 343.651,209.174 352.5,209.5C 352.832,148.331 352.499,87.3311 351.5,26.5C 351.42,23.2186 352.087,20.2186 353.5,17.5 Z"/></g>
<g><path style="opacity:1" fill="#896942" d="M 351.5,26.5 C 352.499,87.3311 352.832,148.331 352.5,209.5C 343.651,209.174 334.984,209.507 326.5,210.5C 289.165,210.667 251.832,210.5 214.5,210C 291.551,172.426 337.218,111.259 351.5,26.5 Z"/></g>
<g><path style="opacity:1" fill="#886941" d="M 238.5,113.5 C 250.167,113.5 261.833,113.5 273.5,113.5C 273.5,119.167 273.5,124.833 273.5,130.5C 261.833,130.5 250.167,130.5 238.5,130.5C 238.5,124.833 238.5,119.167 238.5,113.5 Z"/></g>
<g><path style="opacity:1" fill="#e7d7be" d="M 132.5,209.5 C 141.167,209.5 149.833,209.5 158.5,209.5C 167.318,210.493 176.318,210.827 185.5,210.5C 185.667,239.835 185.5,269.169 185,298.5C 176.333,289.833 167.667,281.167 159,272.5C 150.333,281.167 141.667,289.833 133,298.5C 132.5,268.835 132.333,239.169 132.5,209.5 Z"/></g>
<g><path style="opacity:1" fill="#e7d7be" d="M 353.5,209.5 C 362.167,209.5 370.833,209.5 379.5,209.5C 379.833,238.841 379.5,268.174 378.5,297.5C 369.848,289.348 361.348,281.014 353,272.5C 344.333,281.167 335.667,289.833 327,298.5C 326.5,269.169 326.333,239.835 326.5,210.5C 335.682,210.827 344.682,210.493 353.5,209.5 Z"/></g>
<g><path style="opacity:1" fill="#a58357" d="M 256.5,404.5 C 256.167,404.5 255.833,404.5 255.5,404.5C 255.832,342.331 255.499,280.331 254.5,218.5C 254.523,216.073 255.023,213.74 256,211.5C 256.5,275.832 256.667,340.166 256.5,404.5 Z"/></g>
<g><path style="opacity:0.922" fill="#96754c" d="M 450.5,211.5 C 450.5,275.833 450.5,340.167 450.5,404.5C 450.167,404.5 449.833,404.5 449.5,404.5C 449.832,343.998 449.499,283.664 448.5,223.5C 448.851,219.316 449.518,215.316 450.5,211.5 Z"/></g>
<g><path style="opacity:1" fill="#896942" d="M 254.5,218.5 C 255.499,280.331 255.832,342.331 255.5,404.5C 205.5,404.5 155.5,404.5 105.5,404.5C 188.33,369.311 237.997,307.311 254.5,218.5 Z"/></g>
<g><path style="opacity:1" fill="#896942" d="M 448.5,223.5 C 449.499,283.664 449.832,343.998 449.5,404.5C 401.167,404.5 352.833,404.5 304.5,404.5C 385.789,370.856 433.789,310.522 448.5,223.5 Z"/></g>
<g><path style="opacity:1" fill="#886941" d="M 141.5,325.5 C 153.167,325.5 164.833,325.5 176.5,325.5C 176.5,331.167 176.5,336.833 176.5,342.5C 164.833,342.5 153.167,342.5 141.5,342.5C 141.5,336.833 141.5,331.167 141.5,325.5 Z"/></g>
<g><path style="opacity:1" fill="#886941" d="M 335.5,325.5 C 347.167,325.5 358.833,325.5 370.5,325.5C 370.5,331.167 370.5,336.833 370.5,342.5C 358.833,342.5 347.167,342.5 335.5,342.5C 335.5,336.833 335.5,331.167 335.5,325.5 Z"/></g>
<g><path style="opacity:0.984" fill="#fed688" d="M 61.5,404.5 C 76.1667,404.5 90.8333,404.5 105.5,404.5C 155.5,404.5 205.5,404.5 255.5,404.5C 255.833,404.5 256.167,404.5 256.5,404.5C 272.5,404.5 288.5,404.5 304.5,404.5C 352.833,404.5 401.167,404.5 449.5,404.5C 449.833,404.5 450.167,404.5 450.5,404.5C 462.5,404.5 474.5,404.5 486.5,404.5C 486.5,416.5 486.5,428.5 486.5,440.5C 480.5,440.5 474.5,440.5 468.5,440.5C 456.5,439.167 444.5,439.167 432.5,440.5C 379.833,440.5 327.167,440.5 274.5,440.5C 262.167,439.167 249.833,439.167 237.5,440.5C 184.833,440.5 132.167,440.5 79.5,440.5C 67.5,439.167 55.5,439.167 43.5,440.5C 37.8333,440.5 32.1667,440.5 26.5,440.5C 26.5,428.5 26.5,416.5 26.5,404.5C 38.1667,404.5 49.8333,404.5 61.5,404.5 Z"/></g>
<g><path style="opacity:0.981" fill="#c7a26f" d="M 79.5,440.5 C 79.5,451.833 79.5,463.167 79.5,474.5C 67.5,475.833 55.5,475.833 43.5,474.5C 43.5,463.167 43.5,451.833 43.5,440.5C 55.5,439.167 67.5,439.167 79.5,440.5 Z"/></g>
<g><path style="opacity:0.954" fill="#c6a16f" d="M 274.5,440.5 C 274.5,451.833 274.5,463.167 274.5,474.5C 262.167,475.833 249.833,475.833 237.5,474.5C 237.5,463.167 237.5,451.833 237.5,440.5C 249.833,439.167 262.167,439.167 274.5,440.5 Z"/></g>
<g><path style="opacity:0.981" fill="#c7a26f" d="M 468.5,440.5 C 468.5,451.833 468.5,463.167 468.5,474.5C 456.5,475.833 444.5,475.833 432.5,474.5C 432.5,463.167 432.5,451.833 432.5,440.5C 444.5,439.167 456.5,439.167 468.5,440.5 Z"/></g>
<g><path style="opacity:0.983" fill="#fed688" d="M 43.5,474.5 C 55.5,475.833 67.5,475.833 79.5,474.5C 132.167,474.5 184.833,474.5 237.5,474.5C 249.833,475.833 262.167,475.833 274.5,474.5C 327.167,474.5 379.833,474.5 432.5,474.5C 444.5,475.833 456.5,475.833 468.5,474.5C 474.5,474.5 480.5,474.5 486.5,474.5C 486.5,486.5 486.5,498.5 486.5,510.5C 333.167,510.5 179.833,510.5 26.5,510.5C 26.5,498.5 26.5,486.5 26.5,474.5C 32.1667,474.5 37.8333,474.5 43.5,474.5 Z"/></g>
</svg>
