<svg xmlns="http://www.w3.org/2000/svg" width="163.236" height="165.868" viewBox="0 0 163.236 165.868">
  <path id="container-svgrepo-com" d="M90.253,2.552a15.96,15.96,0,0,1,16.1,0l.05.028,49.35,30.332a16.145,16.145,0,0,1,7.987,13.932v53.315a16.164,16.164,0,0,1-8.037,13.96l-.014.007L70.817,164.043l-.028.021a16.145,16.145,0,0,1-16.2,0l-.184-.106L8.273,132.023A16.088,16.088,0,0,1,.5,118.24V64.663a16.015,16.015,0,0,1,2.015-7.8l.021-.043.1-.184a16.173,16.173,0,0,1,5.817-5.866h.014L90.253,2.545Zm5.37,9.186h-.007L15.743,58.832l44.32,30.126a5.5,5.5,0,0,0,5.377-.071h.007l82.519-48.264-47.023-28.9a5.32,5.32,0,0,0-5.32.021Zm29.02,54.847L101.589,80.063V133.6l23.054-13.563Zm10.64-6.228v53.428l15.067-8.867a5.512,5.512,0,0,0,2.745-4.76V49.944ZM70.8,98.066,90.948,86.291v53.57L68.015,153.353v-54a16.285,16.285,0,0,0,2.774-1.277l.014-.014Zm-13.428,55v-53.7a16.153,16.153,0,0,1-2.788-1.277l-.163-.1L11.139,68.571v49.676a5.441,5.441,0,0,0,2.688,4.71l.177.1,43.37,30.02Z" transform="translate(-0.498 -0.375)" fill="#fff" fill-rule="evenodd"/>
</svg>
