<svg xmlns="http://www.w3.org/2000/svg" width="152.193" height="162.183" viewBox="0 0 152.193 162.183">
  <g id="sand-clock-full-icon" transform="matrix(0.927, 0.375, -0.375, 0.927, 48.619, 0)">
    <path id="Path_2927" data-name="Path 2927" d="M91.12,119C91.326,98.022,83.783,84,73.5,76.839A31.149,31.149,0,0,0,60.685,71.59a30.276,30.276,0,0,0-13.464.875C32.712,76.776,20.332,92.252,20.589,119ZM21.1,20.62H90.614a76.658,76.658,0,0,0,.506-9.83H20.592a76.443,76.443,0,0,0,.508,9.83ZM.961,119h10.1C10.8,89.9,23.921,71.854,40.164,64.921c-16.254-6.935-29.385-25.007-29.1-54.133H.961A1.028,1.028,0,0,1,0,9.706V1.082A1.029,1.029,0,0,1,.961,0H110.747a1.03,1.03,0,0,1,.961,1.082V9.7a1.031,1.031,0,0,1-.961,1.083H100.639c.238,24.518-9.062,41.232-21.7,50.038a41.158,41.158,0,0,1-7.387,4.091,41.466,41.466,0,0,1,7.385,4.1c12.627,8.8,21.923,25.495,21.7,49.98h10.11a1.033,1.033,0,0,1,.961,1.085V128.7a1.033,1.033,0,0,1-.961,1.085H.961A1.031,1.031,0,0,1,0,128.7v-8.621A1.031,1.031,0,0,1,.961,119Z" transform="translate(0 0)" fill="#fff"/>
  </g>
</svg>
