<svg id="ship-svgrepo-com" xmlns="http://www.w3.org/2000/svg" width="132.402" height="135.344" viewBox="0 0 132.402 135.344">
  <g id="Group_2082" data-name="Group 2082" transform="translate(0 0)">
    <g id="Group_2081" data-name="Group 2081" transform="translate(0)">
      <rect id="Rectangle_1421" data-name="Rectangle 1421" width="64.73" height="5.885" transform="translate(33.836 39.721)" fill="#fff"/>
      <rect id="Rectangle_1422" data-name="Rectangle 1422" width="5.885" height="5.885" transform="translate(92.681 48.547)" fill="#fff"/>
      <rect id="Rectangle_1423" data-name="Rectangle 1423" width="5.885" height="5.885" transform="translate(33.836 48.547)" fill="#fff"/>
      <rect id="Rectangle_1424" data-name="Rectangle 1424" width="5.885" height="5.885" transform="translate(63.258 20.596)" fill="#fff"/>
      <rect id="Rectangle_1425" data-name="Rectangle 1425" width="5.885" height="5.885" transform="translate(72.085 20.596)" fill="#fff"/>
      <rect id="Rectangle_1426" data-name="Rectangle 1426" width="5.885" height="5.885" transform="translate(54.431 20.596)" fill="#fff"/>
      <rect id="Rectangle_1427" data-name="Rectangle 1427" width="5.885" height="5.885" transform="translate(45.605 20.596)" fill="#fff"/>
      <rect id="Rectangle_1428" data-name="Rectangle 1428" width="5.885" height="5.885" transform="translate(80.912 20.596)" fill="#fff"/>
      <path id="Path_2930" data-name="Path 2930" d="M125.55,126.863a17.494,17.494,0,0,1-9.488,2.594L133.4,77.429a2.943,2.943,0,0,0-1.584-3.613L115.9,66.653v-28.4a8.837,8.837,0,0,0-8.827-8.827h-4.413V14.711a2.942,2.942,0,0,0-2.942-2.942H74.71V0H68.825V11.769H43.816a2.942,2.942,0,0,0-2.942,2.942V29.423H36.46a8.837,8.837,0,0,0-8.827,8.827v28.4L11.715,73.816a2.942,2.942,0,0,0-1.583,3.613l17.342,52.028a17.494,17.494,0,0,1-9.488-2.593,23.218,23.218,0,0,0-12.418-3.288v5.885a17.509,17.509,0,0,1,9.649,2.6,23.213,23.213,0,0,0,12.418,3.288,24.4,24.4,0,0,0,4.315-.334,23.852,23.852,0,0,0,8.1-2.961,17.479,17.479,0,0,1,9.622-2.589,17.509,17.509,0,0,1,9.649,2.6,23.214,23.214,0,0,0,12.418,3.288,23.218,23.218,0,0,0,12.418-3.288,19.258,19.258,0,0,1,19.3-.007,23.97,23.97,0,0,0,8.129,2.961,24.356,24.356,0,0,0,4.314.334,23.218,23.218,0,0,0,12.418-3.288,17.51,17.51,0,0,1,9.649-2.6v-5.885A23.211,23.211,0,0,0,125.55,126.863Zm1.43-48.773-2.11,6.329L74.71,61.372v-6.8ZM46.758,17.654H96.777V29.423H46.758Zm-13.24,20.6a2.946,2.946,0,0,1,2.942-2.942h70.614a2.946,2.946,0,0,1,2.942,2.942V64L72.974,47.335a2.939,2.939,0,0,0-2.415,0L33.517,64V38.249ZM16.554,78.091,68.825,54.569v6.8L18.664,84.42Zm93.579,50.545a23.874,23.874,0,0,1-3.914-1.783,23.283,23.283,0,0,0-12.414-3.277,23.218,23.218,0,0,0-12.418,3.288,17.51,17.51,0,0,1-9.649,2.6,17.506,17.506,0,0,1-9.649-2.6,23.217,23.217,0,0,0-12.418-3.288,23.185,23.185,0,0,0-12.388,3.28,23.8,23.8,0,0,1-3.883,1.776l-12.865-38.6,48.29-22.187v35.13H74.71V67.849L123,90.036Z" transform="translate(-5.567)" fill="#fff"/>
    </g>
  </g>
</svg>
